<svg width="44" height="44" viewBox="0 0 44 44" fill="none" xmlns="http://www.w3.org/2000/svg">
<path d="M31.2583 37.18C29.4616 38.9217 27.5 38.6467 25.6116 37.8217C23.6133 36.9783 21.78 36.9417 19.6716 37.8217C17.0316 38.9583 15.6383 38.6283 14.0616 37.18C5.11498 27.9583 6.43498 13.915 16.5916 13.4017C19.0666 13.53 20.79 14.7583 22.2383 14.8683C24.4016 14.4283 26.4733 13.1633 28.7833 13.3283C31.5516 13.5483 33.6416 14.6483 35.0166 16.6283C29.2966 20.0567 30.6533 27.5917 35.8966 29.7C34.8516 32.45 33.495 35.1817 31.24 37.1983L31.2583 37.18ZM22.055 13.2917C21.78 9.20333 25.0983 5.83 28.9116 5.5C29.4433 10.23 24.6216 13.75 22.055 13.2917Z" fill="#2B2323"/>
</svg>
