<svg width="38" height="38" viewBox="0 0 38 38" fill="none" xmlns="http://www.w3.org/2000/svg">
<path d="M34.5255 15.899H33.2501V15.8333H19.0001V22.1667H27.9483C26.6428 25.8535 23.135 28.5 19.0001 28.5C13.7537 28.5 9.50008 24.2464 9.50008 19C9.50008 13.7536 13.7537 9.5 19.0001 9.5C21.4218 9.5 23.625 10.4136 25.3025 11.9059L29.781 7.42742C26.9532 4.79196 23.1706 3.16667 19.0001 3.16667C10.2561 3.16667 3.16675 10.256 3.16675 19C3.16675 27.744 10.2561 34.8333 19.0001 34.8333C27.744 34.8333 34.8334 27.744 34.8334 19C34.8334 17.9384 34.7242 16.9021 34.5255 15.899Z" fill="#FFC107"/>
<path d="M4.99219 11.6304L10.1942 15.4454C11.6018 11.9605 15.0107 9.5 18.9999 9.5C21.4216 9.5 23.6249 10.4136 25.3024 11.9059L29.7809 7.42742C26.953 4.79196 23.1704 3.16667 18.9999 3.16667C12.9184 3.16667 7.64427 6.60013 4.99219 11.6304Z" fill="#FF3D00"/>
<path d="M18.9999 34.8333C23.0897 34.8333 26.8058 33.2682 29.6154 30.723L24.715 26.5762C23.0719 27.8258 21.0642 28.5016 18.9999 28.5C14.8817 28.5 11.3849 25.874 10.0675 22.2094L4.9043 26.1875C7.52471 31.3152 12.8463 34.8333 18.9999 34.8333Z" fill="#4CAF50"/>
<path d="M34.5254 15.899H33.25V15.8333H19V22.1667H27.9482C27.3237 23.9213 26.1989 25.4546 24.7127 26.577L24.715 26.5755L29.6155 30.7222C29.2687 31.0373 34.8333 26.9167 34.8333 19C34.8333 17.9384 34.7241 16.9021 34.5254 15.899Z" fill="#1976D2"/>
</svg>
